<svg id="Layer_1" data-name="Layer 1" xmlns="http://www.w3.org/2000/svg" viewBox="0 0 960 560"><defs><style>.cls-1{fill:#fff;}</style></defs><path class="cls-1" d="M187.62,325.37c-32.14,9.76-79.54,9.28-97.81-23.18-10-19.52-5.07-48.07,14-60.45,20-13.82,49.37-15,73.21-10.21,4.41,1.45,19.74,4.11,20.84,8.17-1.18,25.61,5.95,23.12-18.23,13.86-21.08-6.1-56.26-8.21-66.43,15.06-14.74,47.85,54,48.39,81.48,31.18a2.15,2.15,0,0,1,3.17,1.9v18.42c-1,3.62-7.23,3.6-10.2,5.25"/><path class="cls-1" d="M248.28,286.81c-.77,15,6.93,20.61,21.32,19.91.83,1,52-2.49,49.54,2.16V326a2.16,2.16,0,0,1-2.16,2.15c-22.83-2.5-83.41,9.4-92.52-17.52-4.58-8.61-1.38-66.66-2.29-77a2.16,2.16,0,0,1,2.16-2.16h21.79C250.84,228.94,247.19,286,248.28,286.81Z"/><path class="cls-1" d="M454.88,291c-2.5,42.91-61.43,42-93.84,37.75a139.28,139.28,0,0,1-21.68-4.38c-3,.26-.9-18.86-1.5-20.26,1.06-4.8,6.82.13,10,.4a123,123,0,0,0,12,3c13.28,2.61,29.9,3.75,43.38,1.87,12.72-1.6,27.53-8.34,25.44-22.82a2.16,2.16,0,0,0-3.32-1.81,67.23,67.23,0,0,1-13.78,6.44c-12.85,4.77-34.93,4.15-47.11.56-18.86-4.67-27.17-20.32-26.63-38.81v-19.3A2.16,2.16,0,0,1,340,231.5h21.92a2.16,2.16,0,0,1,2.16,2.16c.56,10.4-2.53,26.74,6.3,34.26,14.42,11.16,38.58,6.13,51.76-5.32,2.42-2.45,5.61-4.32,6.54-7.39V233.66a2.16,2.16,0,0,1,2.16-2.16h21.86C457.59,228.91,453.69,290.27,454.88,291Z"/><path class="cls-1" d="M603.56,279.77c1.1,34.76-25.62,49.35-57.07,48.41-.81-1.11-63.8,2.62-61.35-2.15V233.66c-2.66-4.83,60.52-1,61.21-2.16,31.4-.87,58.29,13.46,57.21,48.27m-26.31,0c1.72-35.3-40.85-26-63.85-27.23-4.81-2.11-1,51.4-2.16,52.45a2.16,2.16,0,0,0,2.16,2.15h30.28c18.91.74,34.66-6.78,33.57-27.37"/><path class="cls-1" d="M870.71,248.67c-19.11-25.77-62.49-19.41-90.81-14.92-3.41,1.3-10.33.52-11,4.15v18.43c.95,4.82,7.24-.19,10.48-.41q5.77-1.69,12.21-3c16-2.78,36.77-5.24,51.37,1.3,4,1.53,8.84,9.27,3.84,11.06q-21.66,1.26-37.69,3.4-16.79,2.26-27.76,6.41c-17.56,8.82-45.13,27.59-53.94,29.2-19.48,6.48-36.3,8-55.16,4.93-10.43-2.08-19.36-6.46-23.35-16a2.16,2.16,0,0,1,2-3h90.08c3.11.07,2-4.66,2.16-6.48a59.67,59.67,0,0,0-4.33-23.5c-9-22-31.91-31.5-55.06-31.24-23.92-.19-48,9.36-58.37,31.07-9,19.07-4.46,44.71,12.84,57.38,32.43,23.21,87.58,12.85,121.17-3.43a2.88,2.88,0,0,1,3.7,1.11C773.64,331,796.1,331,813.36,329.35a101.13,101.13,0,0,0,32.34-9.06c3.61-1.41,3.16,3.64,3.09,5.74a2.16,2.16,0,0,0,2.16,2.16h21.79A2.16,2.16,0,0,0,874.9,326c-1.93-11.79,4.16-68.08-4.19-77.36M650.92,264.22c12.65-19.65,59.13-21.31,65.76,4.23a2.16,2.16,0,0,1-2.1,2.67H650.8c-4-.59-1.28-4.76.12-6.9m197.87,31.44c-8.4,9.85-30,13.78-43.06,13.95-7.25-.3-14.6-.06-18.86-5.38-3.09-6.1,1.72-10.92,7.92-13.06,15.8-5.47,32.94-6,51.75-7a2.16,2.16,0,0,1,2.25,2.16Z"/></svg>